<?xml version="1.0" encoding="UTF-8"?>
<svg width="369px" height="256px" viewBox="0 0 369 256" version="1.1" xmlns="http://www.w3.org/2000/svg" xmlns:xlink="http://www.w3.org/1999/xlink">
    <!-- Generator: sketchtool 52.3 (67297) - http://www.bohemiancoding.com/sketch -->
    <title>6C2B2CB6-DCB0-4F74-9389-D86E5C2339A3</title>
    <desc>Created with sketchtool.</desc>
    <defs>
        <path d="M18.4100928,3.69843891 C16.7815252,2.928273 14.9700849,2.48478884 13.0512865,2.48478884 C6.0975756,2.48478884 0.461275862,8.13784314 0.461275862,15.1122247 C0.461275862,22.0856938 6.0975756,27.7378356 13.0512865,27.7378356 C13.136809,27.7378356 13.2223316,27.733273 13.3069443,27.731448 C17.10087,27.8683258 20.1369204,30.9864027 20.1369204,34.824457 C20.1369204,38.7492006 16.9643979,41.9302413 13.0512865,41.9302413 C9.13635544,41.9302413 5.96383289,38.7492006 5.96383289,34.824457 C5.96383289,32.7530392 6.85272149,30.8951508 8.26202387,29.5966365 C6.41874005,29.0208371 4.76560743,28.023454 3.39269761,26.7295023 C1.56579045,28.92046 0.461275862,31.7419683 0.461275862,34.824457 C0.461275862,41.7970136 6.0975756,47.4509804 13.0512865,47.4509804 C20.0040875,47.4509804 25.6403873,41.7970136 25.6403873,34.824457 C25.6403873,27.8500754 20.0040875,22.1979336 13.0512865,22.1979336 C12.9648541,22.1979336 12.8811512,22.2024962 12.7947188,22.2043213 C9.0007931,22.068356 5.96383289,18.950279 5.96383289,15.1122247 C5.96383289,11.1856561 9.13635544,8.00370287 13.0512865,8.00370287 C16.9643979,8.00370287 20.1369204,11.1856561 20.1369204,15.1122247 C20.1369204,17.18273 19.2489416,19.0397059 17.8396393,20.3391327 C19.6838329,20.9140196 21.3369655,21.9114027 22.7089655,23.2053544 C24.5367825,21.0134842 25.6403873,18.1928884 25.6403873,15.1122247 C25.6403873,12.1958145 24.6441406,9.51757164 22.9882785,7.37953997 L25.4074748,4.48776772 L20.9139019,0.707202112 L18.4100928,3.69843891 Z" id="path-1"></path>
        <linearGradient x1="49.9999158%" y1="0.000858726843%" x2="49.9999158%" y2="99.9982175%" id="linearGradient-3">
            <stop stop-color="#0086CD" offset="0%"></stop>
            <stop stop-color="#9E2986" offset="100%"></stop>
        </linearGradient>
    </defs>
    <g id="Page-1" stroke="none" stroke-width="1" fill="none" fill-rule="evenodd">
        <g id="system-unavailable-copy" transform="translate(-776.000000, -137.000000)">
            <rect fill="#FFFFFF" x="0" y="0" width="1920" height="1080"></rect>
            <g id="Igenti-logo" transform="translate(876.000000, 237.000000)">
                <g id="Group-5">
                    <path d="M0.575217391,34.9823228 L6.867,34.9823228 L6.867,10.2758748 L0.575217391,10.2758748 L0.575217391,34.9823228 Z M62.3736522,27.3554902 L55.5924783,27.3554902 C54.5506957,29.1394646 52.9446522,30.031908 50.7725217,30.031908 C49.1664783,30.031908 47.8416522,29.5409729 46.8016957,28.5600151 C45.759913,27.5790573 45.1655217,26.2860181 45.0166957,24.6799849 L63.042913,24.6799849 C63.1625217,23.9371946 63.2227826,23.134178 63.2227826,22.2718477 C63.2227826,18.5259578 62.0623043,15.5310709 59.7422609,13.2862745 C57.4222174,11.0414781 54.4548261,9.91907994 50.840087,9.91907994 C47.2262609,9.91907994 44.2798696,11.0715913 42.0045652,13.3747888 C39.7292609,15.6798115 38.5916087,18.7486124 38.5916087,22.5839291 C38.5916087,26.4201584 39.7210435,29.5044721 41.9817391,31.8377828 C44.2424348,34.172006 47.1723913,35.3382051 50.7725217,35.3382051 C53.6878696,35.3382051 56.1713478,34.5954148 58.2238696,33.1089216 C60.2763913,31.6224284 61.6605652,29.7052262 62.3736522,27.3554902 Z M56.7073043,20.6220136 L45.0166957,20.6220136 C45.2248696,18.9867798 45.8576087,17.6782278 46.9121739,16.69727 C47.9694783,15.7163122 49.2842609,15.2262896 50.862,15.2262896 C52.4388261,15.2262896 53.7855652,15.7163122 54.8994783,16.69727 C56.0152174,17.6782278 56.6187391,18.9867798 56.7073043,20.6220136 Z M68.1742174,10.2758748 L68.1742174,34.9814103 L74.466913,34.9814103 L74.466913,21.3356033 C74.466913,19.4028884 74.9636087,17.9236953 75.9615652,16.8980241 C76.9576957,15.8723529 78.3044348,15.3595173 79.9999565,15.3595173 C81.6945652,15.3595173 83.034,15.8723529 84.0146087,16.8980241 C84.9970435,17.9236953 85.4873478,19.4028884 85.4873478,21.3356033 L85.4873478,34.9814103 L91.7343913,34.9814103 L91.7343913,20.4431599 C91.7343913,17.1434917 90.8432609,14.5647134 89.0573478,12.7059125 C87.2723478,10.8489367 84.9678261,9.91907994 82.1410435,9.91907994 C78.6002609,9.91907994 76.0437391,11.2723454 74.466913,13.9770513 L74.466913,10.2758748 L68.1742174,10.2758748 Z M105.790696,29.206991 C105.403565,28.8647964 105.210913,28.2926471 105.210913,27.4896305 L105.210913,15.4042308 L110.743043,15.4042308 L110.743043,10.2758748 L105.210913,10.2758748 L105.210913,4.16564857 L98.9182174,4.16564857 L98.9182174,10.2758748 L96.285,10.2758748 L96.285,15.4042308 L98.9182174,15.4042308 L98.9182174,27.4896305 C98.9182174,30.1651357 99.602087,32.0832504 100.970739,33.2421493 C102.338478,34.4019608 104.286913,34.9814103 106.816957,34.9814103 L110.787783,34.9814103 L110.787783,29.7198265 L107.798478,29.7198265 C106.846174,29.7198265 106.176,29.5491855 105.790696,29.206991 Z M115.695391,34.9823228 L121.988087,34.9823228 L121.988087,10.2758748 L115.695391,10.2758748 L115.695391,34.9823228 Z M135.328565,10.2758748 L135.328565,8.89340875 C135.328565,7.70439668 135.596087,6.85757919 136.132043,6.35113122 C136.668,5.8465083 137.590174,5.59282805 138.898565,5.59282805 L138.898565,0.331244344 C135.507522,0.331244344 133.024043,1.01472097 131.446304,2.38258673 C129.870391,3.75045249 129.081522,5.92042232 129.081522,8.89340875 L129.081522,10.2758748 L126.405391,10.2758748 L126.405391,15.4042308 L129.081522,15.4042308 L129.081522,34.9814103 L135.328565,34.9814103 L135.328565,15.4042308 L139.256478,15.4042308 L139.256478,10.2758748 L135.328565,10.2758748 Z M145.10087,46.6662142 L151.661087,46.6662142 L167.098826,10.2758748 L160.539522,10.2758748 L153.890739,27.8464253 L147.59987,10.2758748 L140.550261,10.2758748 L150.232174,34.5361011 L145.10087,46.6662142 Z" id="Fill-1" fill="#575756"></path>
                    <path d="M118.683509,8.00133032 C120.802683,8.00133032 122.52103,6.28396983 122.52103,4.16601357 C122.52103,2.04805732 120.802683,0.330696833 118.683509,0.330696833 C116.565248,0.330696833 114.845987,2.04805732 114.845987,4.16601357 C114.845987,6.28396983 116.565248,8.00133032 118.683509,8.00133032" id="Fill-3" fill="#9E358B"></path>
                    <path d="M7.67504348,4.16601357 C7.67504348,2.04805732 5.95669565,0.330696833 3.83752174,0.330696833 C1.71834783,0.330696833 0,2.04805732 0,4.16601357 C0,6.28396983 1.71834783,8.00133032 3.83752174,8.00133032 C5.95669565,8.00133032 7.67504348,6.28396983 7.67504348,4.16601357 Z" id="Fill-4" fill="#0085CD"></path>
                </g>
                <g id="Group-8" transform="translate(10.230769, 7.549020)">
                    <mask id="mask-2" fill="white">
                        <use xlink:href="#path-1"></use>
                    </mask>
                    <g id="Clip-7"></g>
                    <path d="M18.4100928,3.69843891 C16.7815252,2.928273 14.9700849,2.48478884 13.0512865,2.48478884 C6.0975756,2.48478884 0.461275862,8.13784314 0.461275862,15.1122247 C0.461275862,22.0856938 6.0975756,27.7378356 13.0512865,27.7378356 C13.136809,27.7378356 13.2223316,27.733273 13.3069443,27.731448 C17.10087,27.8683258 20.1369204,30.9864027 20.1369204,34.824457 C20.1369204,38.7492006 16.9643979,41.9302413 13.0512865,41.9302413 C9.13635544,41.9302413 5.96383289,38.7492006 5.96383289,34.824457 C5.96383289,32.7530392 6.85272149,30.8951508 8.26202387,29.5966365 C6.41874005,29.0208371 4.76560743,28.023454 3.39269761,26.7295023 C1.56579045,28.92046 0.461275862,31.7419683 0.461275862,34.824457 C0.461275862,41.7970136 6.0975756,47.4509804 13.0512865,47.4509804 C20.0040875,47.4509804 25.6403873,41.7970136 25.6403873,34.824457 C25.6403873,27.8500754 20.0040875,22.1979336 13.0512865,22.1979336 C12.9648541,22.1979336 12.8811512,22.2024962 12.7947188,22.2043213 C9.0007931,22.068356 5.96383289,18.950279 5.96383289,15.1122247 C5.96383289,11.1856561 9.13635544,8.00370287 13.0512865,8.00370287 C16.9643979,8.00370287 20.1369204,11.1856561 20.1369204,15.1122247 C20.1369204,17.18273 19.2489416,19.0397059 17.8396393,20.3391327 C19.6838329,20.9140196 21.3369655,21.9114027 22.7089655,23.2053544 C24.5367825,21.0134842 25.6403873,18.1928884 25.6403873,15.1122247 C25.6403873,12.1958145 24.6441406,9.51757164 22.9882785,7.37953997 L25.4074748,4.48776772 L20.9139019,0.707202112 L18.4100928,3.69843891 Z" id="Fill-6" fill="url(#linearGradient-3)" mask="url(#mask-2)"></path>
                </g>
                <g id="Group-29" transform="translate(70.538462, 39.901961)">
                    <polygon id="Fill-9" fill="#9E358B" points="5.63237324 2.48883088 7.42011237 2.48883088 3.30502542 12.3164142 1.51819933 12.3164142 2.95715585 8.99258088 0.29472107 2.48883088 2.17741672 2.48883088 3.89302542 7.14916422"></polygon>
                    <path d="M11.2671298,7.79999755 C12.154608,7.79999755 13.0064776,7.14916422 13.0064776,5.82458088 C13.0064776,4.48808088 12.1792602,3.84916422 11.2908689,3.84916422 C10.4033906,3.84916422 9.59991237,4.48808088 9.59991237,5.82458088 C9.59991237,7.14916422 10.3677819,7.79999755 11.2671298,7.79999755 M11.2671298,9.26941422 C9.34791237,9.26941422 7.89708629,7.92008088 7.89708629,5.82458088 C7.89708629,3.71716422 9.39630368,2.38066422 11.3155211,2.38066422 C13.2347385,2.38066422 14.7339559,3.71716422 14.7339559,5.82458088 C14.7339559,7.92008088 13.1991298,9.26941422 11.2671298,9.26941422" id="Fill-11" fill="#9E358B"></path>
                    <path d="M22.2392645,9.16060588 L20.547395,9.16060588 L20.547395,8.31727255 C20.127395,8.88377255 19.3969602,9.24493922 18.5688298,9.24493922 C17.0212211,9.24493922 15.9054819,8.23293922 15.9054819,6.40235588 L15.9054819,2.48910588 L17.5845689,2.48910588 L17.5845689,6.16218922 C17.5845689,7.23377255 18.1734819,7.81127255 19.0609602,7.81127255 C19.9730906,7.81127255 20.547395,7.23377255 20.547395,6.16218922 L20.547395,2.48910588 L22.2392645,2.48910588 L22.2392645,9.16060588 Z" id="Fill-13" fill="#9E358B"></path>
                    <path d="M25.5713254,9.16060588 L23.8913254,9.16060588 L23.8913254,2.48910588 L25.5713254,2.48910588 L25.5713254,3.52493922 C25.9913254,2.83835588 26.6870645,2.39193922 27.6101515,2.39193922 L27.6101515,4.16293922 L27.1664124,4.16293922 C26.1702819,4.16293922 25.5713254,4.54793922 25.5713254,5.83677255 L25.5713254,9.16060588 Z" id="Fill-15" fill="#9E358B"></path>
                    <path d="M31.5899254,0.249047549 L33.2699254,0.249047549 L33.2699254,3.31988088 C33.701795,2.75338088 34.4450124,2.39221422 35.3334037,2.39221422 C36.831708,2.39221422 37.923708,3.40329755 37.923708,5.24671422 L37.923708,9.16088088 L36.2446211,9.16088088 L36.2446211,5.47496422 C36.2446211,4.40338088 35.6566211,3.82496422 34.7682298,3.82496422 C33.8570124,3.82496422 33.2699254,4.40338088 33.2699254,5.47496422 L33.2699254,9.16088088 L31.5899254,9.16088088 L31.5899254,0.249047549 Z" id="Fill-17" fill="#9E358B"></path>
                    <path d="M40.7997037,5.19858922 L43.9542689,5.19858922 C43.9305298,4.31950588 43.2347906,3.76583922 42.3710515,3.76583922 C41.5675732,3.76583922 40.932095,4.28283922 40.7997037,5.19858922 M42.4185298,9.26858922 C40.4874428,9.26858922 39.084095,7.92017255 39.084095,5.82467255 C39.084095,3.71725588 40.4518341,2.38075588 42.4185298,2.38075588 C44.3377472,2.38075588 45.6936167,3.69250588 45.6936167,5.67983922 C45.6936167,5.89708922 45.6817472,6.11342255 45.6461385,6.33067255 L40.7869211,6.33067255 C40.8709211,7.31883922 41.5429211,7.87250588 42.3829211,7.87250588 C43.1023993,7.87250588 43.4986602,7.51042255 43.7141385,7.06492255 L45.5256167,7.06492255 C45.1658776,8.29325588 44.062008,9.26858922 42.4185298,9.26858922" id="Fill-19" fill="#9E358B"></path>
                    <path d="M49.9488559,3.86208922 C49.049508,3.86208922 48.1976385,4.53583922 48.1976385,5.80083922 C48.1976385,7.06492255 49.049508,7.78725588 49.9488559,7.78725588 C50.8728559,7.78725588 51.7128559,7.08967255 51.7128559,5.82467255 C51.7128559,4.56058922 50.8728559,3.86208922 49.9488559,3.86208922 M49.5169863,2.38075588 C50.5843341,2.38075588 51.316595,2.88675588 51.7128559,3.44042255 L51.7128559,2.48892255 L53.4028993,2.48892255 L53.4028993,9.16042255 L51.7128559,9.16042255 L51.7128559,8.18508922 C51.316595,8.76350588 50.560595,9.26858922 49.5051167,9.26858922 C47.8260298,9.26858922 46.4820298,7.88442255 46.4820298,5.80083922 C46.4820298,3.71725588 47.8260298,2.38075588 49.5169863,2.38075588" id="Fill-21" fill="#9E358B"></path>
                    <polygon id="Fill-23" fill="#9E358B" points="55.0424515 9.16078922 56.7224515 9.16078922 56.7224515 0.248955882 55.0424515 0.248955882"></polygon>
                    <path d="M58.6405732,3.87363922 L57.8489645,3.87363922 L57.8489645,2.48855588 L58.6405732,2.48855588 L58.6405732,0.838555882 L60.3324428,0.838555882 L60.3324428,2.48855588 L61.8188776,2.48855588 L61.8188776,3.87363922 L60.3324428,3.87363922 L60.3324428,7.10122255 C60.3324428,7.54672255 60.5123124,7.74013922 61.0400515,7.74013922 L61.8188776,7.74013922 L61.8188776,9.16097255 L60.7633993,9.16097255 C59.4924428,9.16097255 58.6405732,8.61922255 58.6405732,7.08930588 L58.6405732,3.87363922 Z" id="Fill-25" fill="#9E358B"></path>
                    <path d="M63.0292993,0.249047549 L64.7092993,0.249047549 L64.7092993,3.31988088 C65.1411689,2.75338088 65.8843863,2.39221422 66.7727776,2.39221422 C68.2710819,2.39221422 69.3630819,3.40329755 69.3630819,5.24671422 L69.3630819,9.16088088 L67.683995,9.16088088 L67.683995,5.47496422 C67.683995,4.40338088 67.095995,3.82496422 66.2076037,3.82496422 C65.2963863,3.82496422 64.7092993,4.40338088 64.7092993,5.47496422 L64.7092993,9.16088088 L63.0292993,9.16088088 L63.0292993,0.249047549 Z" id="Fill-26" fill="#9E358B"></path>
                    <polygon id="Fill-27" fill="#575756" points="84.744395 3.28825588 87.1986559 3.28825588 87.1986559 3.83275588 86.3066124 3.83275588 86.3066124 6.64692255 85.6364385 6.64692255 85.6364385 3.83275588 84.744395 3.83275588"></polygon>
                    <polygon id="Fill-28" fill="#575756" points="87.689508 3.28825588 88.4509863 3.28825588 89.515595 5.78617255 90.5792906 3.28825588 91.3362037 3.28825588 91.3362037 6.64692255 90.6660298 6.64692255 90.6660298 4.46250588 89.7694211 6.64692255 89.2617689 6.64692255 88.3596819 4.46250588 88.3596819 6.64692255 87.689508 6.64692255"></polygon>
                </g>
            </g>
        </g>
    </g>
</svg>